<mxfile host="app.diagrams.net" modified="2024-03-05T17:29:40.670Z" agent="Mozilla/5.0 (X11; Linux x86_64) AppleWebKit/537.36 (KHTML, like Gecko) Chrome/122.0.0.0 Safari/537.36" etag="OVaStv7GZ_1Gcb8gh9zr" version="23.1.6" type="device">
  <diagram name="PÃ¡gina-1" id="wuxkeZ4uwRi8Pr0_gsTJ">
    <mxGraphModel dx="1575" dy="1062" grid="1" gridSize="10" guides="1" tooltips="1" connect="1" arrows="1" fold="1" page="1" pageScale="1" pageWidth="15747" pageHeight="3936" math="0" shadow="0">
      <root>
        <mxCell id="0" />
        <mxCell id="1" parent="0" />
        <mxCell id="RUMM6041_TxGA3RCzJlU-21" value="" style="rounded=1;whiteSpace=wrap;html=1;dashed=1;" vertex="1" parent="1">
          <mxGeometry x="750" y="177.5" width="160" height="125" as="geometry" />
        </mxCell>
        <mxCell id="RUMM6041_TxGA3RCzJlU-20" value="" style="rounded=1;whiteSpace=wrap;html=1;dashed=1;" vertex="1" parent="1">
          <mxGeometry x="90" y="257.5" width="160" height="102.5" as="geometry" />
        </mxCell>
        <mxCell id="RUMM6041_TxGA3RCzJlU-19" value="" style="rounded=1;whiteSpace=wrap;html=1;dashed=1;" vertex="1" parent="1">
          <mxGeometry x="90" y="105" width="160" height="125" as="geometry" />
        </mxCell>
        <mxCell id="RUMM6041_TxGA3RCzJlU-18" value="" style="rounded=1;whiteSpace=wrap;html=1;dashed=1;" vertex="1" parent="1">
          <mxGeometry x="310" y="105" width="390" height="270" as="geometry" />
        </mxCell>
        <mxCell id="RUMM6041_TxGA3RCzJlU-7" style="edgeStyle=orthogonalEdgeStyle;rounded=0;orthogonalLoop=1;jettySize=auto;html=1;exitX=1;exitY=0.5;exitDx=0;exitDy=0;entryX=0;entryY=0.5;entryDx=0;entryDy=0;" edge="1" parent="1" source="RUMM6041_TxGA3RCzJlU-1" target="RUMM6041_TxGA3RCzJlU-3">
          <mxGeometry relative="1" as="geometry" />
        </mxCell>
        <mxCell id="RUMM6041_TxGA3RCzJlU-1" value="camera_1" style="ellipse;whiteSpace=wrap;html=1;" vertex="1" parent="1">
          <mxGeometry x="110" y="130" width="120" height="80" as="geometry" />
        </mxCell>
        <mxCell id="RUMM6041_TxGA3RCzJlU-8" style="edgeStyle=orthogonalEdgeStyle;rounded=0;orthogonalLoop=1;jettySize=auto;html=1;exitX=1;exitY=0.5;exitDx=0;exitDy=0;entryX=0;entryY=0.5;entryDx=0;entryDy=0;" edge="1" parent="1" source="RUMM6041_TxGA3RCzJlU-2" target="RUMM6041_TxGA3RCzJlU-4">
          <mxGeometry relative="1" as="geometry" />
        </mxCell>
        <mxCell id="RUMM6041_TxGA3RCzJlU-2" value="laser_1" style="ellipse;whiteSpace=wrap;html=1;" vertex="1" parent="1">
          <mxGeometry x="110" y="270" width="120" height="80" as="geometry" />
        </mxCell>
        <mxCell id="RUMM6041_TxGA3RCzJlU-10" style="rounded=0;orthogonalLoop=1;jettySize=auto;html=1;exitX=1;exitY=0.5;exitDx=0;exitDy=0;entryX=0;entryY=0;entryDx=0;entryDy=0;" edge="1" parent="1" source="RUMM6041_TxGA3RCzJlU-3" target="RUMM6041_TxGA3RCzJlU-5">
          <mxGeometry relative="1" as="geometry" />
        </mxCell>
        <mxCell id="RUMM6041_TxGA3RCzJlU-3" value="ball_detector" style="ellipse;whiteSpace=wrap;html=1;" vertex="1" parent="1">
          <mxGeometry x="340" y="130" width="120" height="80" as="geometry" />
        </mxCell>
        <mxCell id="RUMM6041_TxGA3RCzJlU-9" style="rounded=0;orthogonalLoop=1;jettySize=auto;html=1;exitX=1;exitY=0.5;exitDx=0;exitDy=0;entryX=0;entryY=1;entryDx=0;entryDy=0;" edge="1" parent="1" source="RUMM6041_TxGA3RCzJlU-4" target="RUMM6041_TxGA3RCzJlU-5">
          <mxGeometry relative="1" as="geometry" />
        </mxCell>
        <mxCell id="RUMM6041_TxGA3RCzJlU-4" value="obstacle_detector" style="ellipse;whiteSpace=wrap;html=1;" vertex="1" parent="1">
          <mxGeometry x="340" y="270" width="120" height="80" as="geometry" />
        </mxCell>
        <mxCell id="RUMM6041_TxGA3RCzJlU-11" style="edgeStyle=orthogonalEdgeStyle;rounded=0;orthogonalLoop=1;jettySize=auto;html=1;exitX=1;exitY=0.5;exitDx=0;exitDy=0;entryX=0;entryY=0.5;entryDx=0;entryDy=0;" edge="1" parent="1" source="RUMM6041_TxGA3RCzJlU-5" target="RUMM6041_TxGA3RCzJlU-6">
          <mxGeometry relative="1" as="geometry" />
        </mxCell>
        <mxCell id="RUMM6041_TxGA3RCzJlU-5" value="controller" style="ellipse;whiteSpace=wrap;html=1;" vertex="1" parent="1">
          <mxGeometry x="540" y="200" width="120" height="80" as="geometry" />
        </mxCell>
        <mxCell id="RUMM6041_TxGA3RCzJlU-6" value="mobile_base" style="ellipse;whiteSpace=wrap;html=1;" vertex="1" parent="1">
          <mxGeometry x="770" y="200" width="120" height="80" as="geometry" />
        </mxCell>
        <mxCell id="RUMM6041_TxGA3RCzJlU-12" value="&lt;font color=&quot;#ff00ff&quot; style=&quot;font-size: 9px;&quot;&gt;sensor_msgs/msg/LaserScan&lt;/font&gt;" style="text;html=1;align=center;verticalAlign=middle;whiteSpace=wrap;rounded=0;" vertex="1" parent="1">
          <mxGeometry x="260" y="320" width="60" height="30" as="geometry" />
        </mxCell>
        <mxCell id="RUMM6041_TxGA3RCzJlU-13" value="&lt;font color=&quot;#ff00ff&quot; style=&quot;font-size: 9px;&quot;&gt;std_msgs/msg/Vector3&lt;/font&gt;" style="text;html=1;align=center;verticalAlign=middle;whiteSpace=wrap;rounded=0;" vertex="1" parent="1">
          <mxGeometry x="500" y="155" width="60" height="30" as="geometry" />
        </mxCell>
        <mxCell id="RUMM6041_TxGA3RCzJlU-14" value="&lt;font color=&quot;#ff00ff&quot; style=&quot;font-size: 9px;&quot;&gt;sensor_msgs/msg/Image&lt;/font&gt;" style="text;html=1;align=center;verticalAlign=middle;whiteSpace=wrap;rounded=0;" vertex="1" parent="1">
          <mxGeometry x="260" y="170" width="60" height="30" as="geometry" />
        </mxCell>
        <mxCell id="RUMM6041_TxGA3RCzJlU-15" value="&lt;font color=&quot;#ff00ff&quot; style=&quot;font-size: 9px;&quot;&gt;geometry_msgs/msg/Twist&lt;/font&gt;" style="text;html=1;align=center;verticalAlign=middle;whiteSpace=wrap;rounded=0;" vertex="1" parent="1">
          <mxGeometry x="690" y="240" width="60" height="30" as="geometry" />
        </mxCell>
        <mxCell id="RUMM6041_TxGA3RCzJlU-16" value="&lt;font color=&quot;#ff00ff&quot; style=&quot;font-size: 9px;&quot;&gt;std_msgs/msg/Vector3&lt;/font&gt;" style="text;html=1;align=center;verticalAlign=middle;whiteSpace=wrap;rounded=0;" vertex="1" parent="1">
          <mxGeometry x="500" y="305" width="60" height="30" as="geometry" />
        </mxCell>
      </root>
    </mxGraphModel>
  </diagram>
</mxfile>
